<?xml version="1.0" encoding="UTF-8" standalone="no"?><!DOCTYPE svg PUBLIC "-//W3C//DTD SVG 1.1//EN" "http://www.w3.org/Graphics/SVG/1.1/DTD/svg11.dtd"><svg width="100%" height="100%" viewBox="0 0 6000 6000" version="1.1" xmlns="http://www.w3.org/2000/svg" xmlns:xlink="http://www.w3.org/1999/xlink" xml:space="preserve" xmlns:serif="http://www.serif.com/" style="fill-rule:evenodd;clip-rule:evenodd;stroke-linejoin:round;stroke-miterlimit:2;"><path d="M2999.72,74.048c-1656.59,-0 -2999.72,1343.13 -2999.72,3000.09c0,1325.45 859.511,2449.8 2051.63,2846.68c150.097,27.441 204.795,-65.195 204.795,-144.756c-0,-71.088 -2.578,-259.86 -4.052,-510.144c-834.464,181.221 -1010.53,-402.223 -1010.53,-402.223c-136.468,-346.419 -333.159,-438.687 -333.159,-438.687c-272.385,-186.194 20.626,-182.51 20.626,-182.51c301.115,21.363 459.499,309.217 459.499,309.217c267.595,458.394 702.231,325.977 873.139,249.363c27.257,-193.928 104.607,-326.161 190.429,-401.117c-666.134,-75.693 -1366.52,-333.159 -1366.52,-1482.73c-0,-327.45 116.946,-595.23 308.849,-804.997c-30.94,-75.877 -133.89,-380.859 29.283,-793.947c-0,-0 251.941,-80.666 825.071,307.56c239.234,-66.485 495.964,-99.819 751.036,-100.924c254.704,1.105 511.434,34.439 751.036,100.924c572.762,-388.226 824.151,-307.56 824.151,-307.56c163.725,413.088 60.775,718.07 29.835,793.947c192.271,209.767 308.481,477.547 308.481,804.997c-0,1152.52 -701.495,1406.12 -1369.84,1480.34c107.738,92.636 203.69,275.699 203.69,555.634c-0,400.933 -3.684,724.516 -3.684,822.861c0,80.297 53.961,173.67 206.268,144.388c1191.2,-397.618 2049.97,-1521.23 2049.97,-2846.31c-0,-1656.96 -1343.32,-3000.09 -3000.28,-3000.09" style="fill:#221f1c;"/></svg>