<?xml version="1.0" encoding="UTF-8" standalone="no"?>
<!DOCTYPE svg PUBLIC "-//W3C//DTD SVG 1.1//EN" "http://www.w3.org/Graphics/SVG/1.1/DTD/svg11.dtd">
<svg width="100%" height="100%" viewBox="0 0 1646 1645" version="1.1" xmlns="http://www.w3.org/2000/svg" xmlns:xlink="http://www.w3.org/1999/xlink" xml:space="preserve" xmlns:serif="http://www.serif.com/" style="fill-rule:evenodd;clip-rule:evenodd;stroke-linejoin:round;stroke-miterlimit:2;">
    <g transform="matrix(68.2148,0,0,68.2148,823,818.578)">
        <g id="icon-instagram.svg" transform="matrix(1,0,0,1,-12,-12)">
            <path d="M16,3L8,3C5.243,3 3,5.243 3,8L3,16C3,18.757 5.243,21 8,21L16,21C18.757,21 21,18.757 21,16L21,8C21,5.243 18.757,3 16,3ZM19,16C19,17.654 17.654,19 16,19L8,19C6.346,19 5,17.654 5,16L5,8C5,6.346 6.346,5 8,5L16,5C17.654,5 19,6.346 19,8L19,16Z" style="fill-rule:nonzero;"/>
            <path d="M12,7C9.243,7 7,9.243 7,12C7,14.757 9.243,17 12,17C14.757,17 17,14.757 17,12C17,9.243 14.757,7 12,7ZM12,15C10.346,15 9,13.654 9,12C9,10.346 10.346,9 12,9C13.654,9 15,10.346 15,12C15,13.654 13.654,15 12,15ZM17,6C16.451,6 16,6.451 16,7C16,7.549 16.451,8 17,8C17.549,8 18,7.549 18,7C18,6.451 17.549,6 17,6Z" style="fill-rule:nonzero;"/>
        </g>
        <g id="icon-instagram.svg1" serif:id="icon-instagram.svg">
        </g>
    </g>
</svg>
